<svg width="64" height="64" viewBox="0 0 64 64" fill="none" xmlns="http://www.w3.org/2000/svg">
  <rect width="64" height="64" rx="18" fill="#F4FBF5"/>
  <rect x="10" y="8" width="44" height="48" rx="12" fill="white" stroke="#CFE6D5" stroke-width="2"/>
  <path d="M21 22C21 20.3431 22.3431 19 24 19H40C41.6569 19 43 20.3431 43 22V22C43 23.6569 41.6569 25 40 25H24C22.3431 25 21 23.6569 21 22V22Z" fill="#39A86B"/>
  <rect x="21" y="30" width="14" height="3.5" rx="1.75" fill="#DFF4E5"/>
  <rect x="21" y="37" width="18" height="3.5" rx="1.75" fill="#DFF4E5"/>
  <rect x="21" y="44" width="12" height="3.5" rx="1.75" fill="#DFF4E5"/>
  <rect x="39" y="30" width="4" height="18" rx="2" fill="#39A86B"/>
  <path d="M24 14L32 7L40 14" stroke="#0F5D38" stroke-width="3" stroke-linecap="round" stroke-linejoin="round"/>
</svg>
